<svg xmlns="http://www.w3.org/2000/svg" width="1440" height="900"><path d="M594,497L593,365L421,476Z" fill="#948c78" stroke="#948c78" stroke-width="1.51"/><path d="M421,476L451,573L594,497Z" fill="#908a7c" stroke="#908a7c" stroke-width="1.51"/><path d="M451,573L513,631L594,497Z" fill="#868781" stroke="#868781" stroke-width="1.51"/><path d="M593,365L412,252L421,476Z" fill="#a3916e" stroke="#a3916e" stroke-width="1.51"/><path d="M778,409L675,304L593,365Z" fill="#938b7a" stroke="#938b7a" stroke-width="1.51"/><path d="M540,208L412,252L593,365Z" fill="#ab9469" stroke="#ab9469" stroke-width="1.51"/><path d="M675,304L540,208L593,365Z" fill="#a19070" stroke="#a19070" stroke-width="1.51"/><path d="M421,476L298,530L451,573Z" fill="#978d77" stroke="#978d77" stroke-width="1.51"/><path d="M451,573L395,818L513,631Z" fill="#7d8486" stroke="#7d8486" stroke-width="1.51"/><path d="M281,336L298,530L421,476Z" fill="#a39271" stroke="#a39271" stroke-width="1.51"/><path d="M412,252L281,336L421,476Z" fill="#ac9468" stroke="#ac9468" stroke-width="1.51"/><path d="M594,497L778,409L593,365Z" fill="#8d897e" stroke="#8d897e" stroke-width="1.51"/><path d="M760,686L778,409L594,497Z" fill="#788389" stroke="#788389" stroke-width="1.51"/><path d="M281,336L214,401L298,530Z" fill="#a89671" stroke="#a89671" stroke-width="1.51"/><path d="M513,631L760,686L594,497Z" fill="#768389" stroke="#768389" stroke-width="1.51"/><path d="M395,818L604,751L513,631Z" fill="#76858a" stroke="#76858a" stroke-width="1.51"/><path d="M675,304L719,156L540,208Z" fill="#a6926c" stroke="#a6926c" stroke-width="1.51"/><path d="M860,190L719,156L675,304Z" fill="#9e8f72" stroke="#9e8f72" stroke-width="1.51"/><path d="M778,409L883,330L675,304Z" fill="#8b897e" stroke="#8b897e" stroke-width="1.51"/><path d="M925,577L863,380L778,409Z" fill="#74828a" stroke="#74828a" stroke-width="1.51"/><path d="M604,751L760,686L513,631Z" fill="#687f90" stroke="#687f90" stroke-width="1.51"/><path d="M540,208L400,78L412,252Z" fill="#b89a61" stroke="#b89a61" stroke-width="1.51"/><path d="M412,252L222,55L281,336Z" fill="#be9d5d" stroke="#be9d5d" stroke-width="1.51"/><path d="M88,216L79,436L214,401Z" fill="#b69e6f" stroke="#b69e6f" stroke-width="1.51"/><path d="M455,49L400,78L540,208Z" fill="#ba9d65" stroke="#ba9d65" stroke-width="1.51"/><path d="M604,751L730,744L760,686Z" fill="#607f94" stroke="#607f94" stroke-width="1.51"/><path d="M863,380L883,330L778,409Z" fill="#828683" stroke="#828683" stroke-width="1.51"/><path d="M988,359L883,330L863,380Z" fill="#7d8486" stroke="#7d8486" stroke-width="1.51"/><path d="M570,0L455,49L540,208Z" fill="#b89d6a" stroke="#b89d6a" stroke-width="1.51"/><path d="M298,530L395,818L451,573Z" fill="#89887f" stroke="#89887f" stroke-width="1.51"/><path d="M604,751L729,940L730,744Z" fill="#638396" stroke="#638396" stroke-width="1.51"/><path d="M167,702L395,818L298,530Z" fill="#868985" stroke="#868985" stroke-width="1.51"/><path d="M719,156L570,0L540,208Z" fill="#ae986e" stroke="#ae986e" stroke-width="1.51"/><path d="M883,330L860,190L675,304Z" fill="#928b7a" stroke="#928b7a" stroke-width="1.51"/><path d="M214,401L79,436L298,530Z" fill="#a79775" stroke="#a79775" stroke-width="1.51"/><path d="M88,216L214,401L281,336Z" fill="#b79d6a" stroke="#b79d6a" stroke-width="1.51"/><path d="M648,-61L570,0L719,156Z" fill="#b09c74" stroke="#b09c74" stroke-width="1.51"/><path d="M760,686L925,577L778,409Z" fill="#687e90" stroke="#687e90" stroke-width="1.51"/><path d="M883,330L1002,160L860,190Z" fill="#8f8a7c" stroke="#8f8a7c" stroke-width="1.51"/><path d="M920,733L925,577L760,686Z" fill="#4b799b" stroke="#4b799b" stroke-width="1.51"/><path d="M154,700L167,702L298,530Z" fill="#8e8e85" stroke="#8e8e85" stroke-width="1.51"/><path d="M167,702L221,914L395,818Z" fill="#899089" stroke="#899089" stroke-width="1.51"/><path d="M40,575L154,700L298,530Z" fill="#959182" stroke="#959182" stroke-width="1.51"/><path d="M395,818L553,901L604,751Z" fill="#77888d" stroke="#77888d" stroke-width="1.51"/><path d="M730,744L920,733L760,686Z" fill="#517b9a" stroke="#517b9a" stroke-width="1.51"/><path d="M373,1002L553,901L395,818Z" fill="#818f8c" stroke="#818f8c" stroke-width="1.51"/><path d="M400,78L222,55L412,252Z" fill="#c1a060" stroke="#c1a060" stroke-width="1.51"/><path d="M281,1L222,55L400,78Z" fill="#c7a665" stroke="#c7a665" stroke-width="1.51"/><path d="M281,1L400,78L455,49Z" fill="#c4a362" stroke="#c4a362" stroke-width="1.51"/><path d="M222,55L88,216L281,336Z" fill="#c3a261" stroke="#c3a261" stroke-width="1.51"/><path d="M925,577L988,359L863,380Z" fill="#6f818d" stroke="#6f818d" stroke-width="1.51"/><path d="M243,-158L281,1L353,-209Z" fill="#d0af6d" stroke="#d0af6d" stroke-width="1.51"/><path d="M79,436L40,575L298,530Z" fill="#a2967c" stroke="#a2967c" stroke-width="1.51"/><path d="M6,585L40,575L-41,518Z" fill="#a09885" stroke="#a09885" stroke-width="1.51"/><path d="M892,935L920,733L730,744Z" fill="#4b7e9e" stroke="#4b7e9e" stroke-width="1.51"/><path d="M925,577L1075,526L988,359Z" fill="#5e7d94" stroke="#5e7d94" stroke-width="1.51"/><path d="M570,0L567,-167L455,49Z" fill="#bda370" stroke="#bda370" stroke-width="1.51"/><path d="M933,-67L648,-61L719,156Z" fill="#a79a7c" stroke="#a79a7c" stroke-width="1.51"/><path d="M40,575L6,585L154,700Z" fill="#969487" stroke="#969487" stroke-width="1.51"/><path d="M-41,518L40,575L79,436Z" fill="#a69a80" stroke="#a69a80" stroke-width="1.51"/><path d="M88,216L-16,312L79,436Z" fill="#bba16f" stroke="#bba16f" stroke-width="1.51"/><path d="M222,55L111,70L88,216Z" fill="#c9a867" stroke="#c9a867" stroke-width="1.51"/><path d="M243,-158L111,70L222,55Z" fill="#cead6b" stroke="#cead6b" stroke-width="1.51"/><path d="M-102,93L-16,312L88,216Z" fill="#caa967" stroke="#caa967" stroke-width="1.51"/><path d="M553,901L729,940L604,751Z" fill="#6b8794" stroke="#6b8794" stroke-width="1.51"/><path d="M860,190L933,-67L719,156Z" fill="#9d937c" stroke="#9d937c" stroke-width="1.51"/><path d="M988,359L1002,160L883,330Z" fill="#838782" stroke="#838782" stroke-width="1.51"/><path d="M920,733L1057,566L925,577Z" fill="#44789c" stroke="#44789c" stroke-width="1.51"/><path d="M988,359L1166,303L1002,160Z" fill="#7b8487" stroke="#7b8487" stroke-width="1.51"/><path d="M-16,312L-41,518L79,436Z" fill="#b19f79" stroke="#b19f79" stroke-width="1.51"/><path d="M91,931L221,914L167,702Z" fill="#8c958d" stroke="#8c958d" stroke-width="1.51"/><path d="M553,901L551,1020L729,940Z" fill="#6f8c96" stroke="#6f8c96" stroke-width="1.51"/><path d="M91,931L167,702L154,700Z" fill="#8c938d" stroke="#8c938d" stroke-width="1.51"/><path d="M91,931L154,700L-150,790Z" fill="#909891" stroke="#909891" stroke-width="1.51"/><path d="M1057,566L1075,526L925,577Z" fill="#4c799b" stroke="#4c799b" stroke-width="1.51"/><path d="M648,-61L567,-167L570,0Z" fill="#baa375" stroke="#baa375" stroke-width="1.51"/><path d="M933,-67L645,-129L648,-61Z" fill="#ae9f7f" stroke="#ae9f7f" stroke-width="1.51"/><path d="M339,1009L373,1002L395,818Z" fill="#889389" stroke="#889389" stroke-width="1.51"/><path d="M373,1002L551,1020L553,901Z" fill="#7c9090" stroke="#7c9090" stroke-width="1.51"/><path d="M645,-129L567,-167L648,-61Z" fill="#baa479" stroke="#baa479" stroke-width="1.51"/><path d="M281,1L243,-158L222,55Z" fill="#cdac6a" stroke="#cdac6a" stroke-width="1.51"/><path d="M373,1002L450,1258L551,1020Z" fill="#829790" stroke="#829790" stroke-width="1.51"/><path d="M221,914L339,1009L395,818Z" fill="#89938a" stroke="#89938a" stroke-width="1.51"/><path d="M920,733L1069,765L1057,566Z" fill="#2074a4" stroke="#2074a4" stroke-width="1.51"/><path d="M1057,566L1143,647L1075,526Z" fill="#3e789f" stroke="#3e789f" stroke-width="1.51"/><path d="M729,940L892,935L730,744Z" fill="#56849c" stroke="#56849c" stroke-width="1.51"/><path d="M766,1132L892,935L729,940Z" fill="#5689a1" stroke="#5689a1" stroke-width="1.51"/><path d="M892,935L1069,765L920,733Z" fill="#337ca4" stroke="#337ca4" stroke-width="1.51"/><path d="M353,-209L281,1L455,49Z" fill="#caa967" stroke="#caa967" stroke-width="1.51"/><path d="M1002,160L933,-67L860,190Z" fill="#959081" stroke="#959081" stroke-width="1.51"/><path d="M645,-129L905,-212L567,-167Z" fill="#b5a480" stroke="#b5a480" stroke-width="1.51"/><path d="M221,914L292,1133L339,1009Z" fill="#8c998d" stroke="#8c998d" stroke-width="1.51"/><path d="M-150,790L154,700L6,585Z" fill="#8e938f" stroke="#8e938f" stroke-width="1.51"/><path d="M567,-167L353,-209L455,49Z" fill="#c6a96e" stroke="#c6a96e" stroke-width="1.51"/><path d="M1189,497L1166,303L1075,526Z" fill="#5f7f95" stroke="#5f7f95" stroke-width="1.51"/><path d="M1075,526L1166,303L988,359Z" fill="#667f90" stroke="#667f90" stroke-width="1.51"/><path d="M1002,160L1071,-23L933,-67Z" fill="#919188" stroke="#919188" stroke-width="1.51"/><path d="M1069,765L1143,647L1057,566Z" fill="#1e75a4" stroke="#1e75a4" stroke-width="1.51"/><path d="M1143,647L1189,497L1075,526Z" fill="#457a9e" stroke="#457a9e" stroke-width="1.51"/><path d="M111,70L-102,93L88,216Z" fill="#ccab6a" stroke="#ccab6a" stroke-width="1.51"/><path d="M-16,312L-180,439L-41,518Z" fill="#b3a27c" stroke="#b3a27c" stroke-width="1.51"/><path d="M243,-158L16,-38L111,70Z" fill="#d2b16e" stroke="#d2b16e" stroke-width="1.51"/><path d="M16,-38L-32,14L111,70Z" fill="#d2b16f" stroke="#d2b16f" stroke-width="1.51"/><path d="M-41,518L-164,589L6,585Z" fill="#a19b87" stroke="#a19b87" stroke-width="1.51"/><path d="M-238,228L-180,439L-16,312Z" fill="#c1a876" stroke="#c1a876" stroke-width="1.51"/><path d="M-180,439L-164,589L-41,518Z" fill="#aa9f85" stroke="#aa9f85" stroke-width="1.51"/><path d="M-32,14L-102,93L111,70Z" fill="#d1b06e" stroke="#d1b06e" stroke-width="1.51"/><path d="M1198,36L1071,-23L1002,160Z" fill="#8a8f8a" stroke="#8a8f8a" stroke-width="1.51"/><path d="M339,1009L292,1133L373,1002Z" fill="#8b988d" stroke="#8b988d" stroke-width="1.51"/><path d="M551,1020L766,1132L729,940Z" fill="#678e9b" stroke="#678e9b" stroke-width="1.51"/><path d="M117,1150L292,1133L221,914Z" fill="#8f9e91" stroke="#8f9e91" stroke-width="1.51"/><path d="M684,1257L766,1132L551,1020Z" fill="#6b939d" stroke="#6b939d" stroke-width="1.51"/><path d="M892,935L1073,996L1069,765Z" fill="#257ea9" stroke="#257ea9" stroke-width="1.51"/><path d="M1051,-211L905,-212L933,-67Z" fill="#9e9c8f" stroke="#9e9c8f" stroke-width="1.51"/><path d="M933,-67L905,-212L645,-129Z" fill="#a99f86" stroke="#a99f86" stroke-width="1.51"/><path d="M567,-167L905,-212L353,-209Z" fill="#bea97c" stroke="#bea97c" stroke-width="1.51"/><path d="M91,931L117,1150L221,914Z" fill="#909d92" stroke="#909d92" stroke-width="1.51"/><path d="M-164,589L-150,790L6,585Z" fill="#97988f" stroke="#97988f" stroke-width="1.51"/><path d="M-216,690L-150,790L-164,589Z" fill="#949995" stroke="#949995" stroke-width="1.51"/><path d="M-268,-14L-195,164L-102,93Z" fill="#d6b573" stroke="#d6b573" stroke-width="1.51"/><path d="M-102,93L-195,164L-16,312Z" fill="#cead6b" stroke="#cead6b" stroke-width="1.51"/><path d="M-127,-127L-102,93L-32,14Z" fill="#d7b673" stroke="#d7b673" stroke-width="1.51"/><path d="M-180,439L-216,690L-164,589Z" fill="#a59f8c" stroke="#a59f8c" stroke-width="1.51"/><path d="M-238,228L-216,690L-180,439Z" fill="#b5a583" stroke="#b5a583" stroke-width="1.51"/><path d="M16,-38L-127,-127L-32,14Z" fill="#d8b774" stroke="#d8b774" stroke-width="1.51"/><path d="M243,-158L14,-163L16,-38Z" fill="#d7b673" stroke="#d7b673" stroke-width="1.51"/><path d="M353,-209L14,-163L243,-158Z" fill="#d6b572" stroke="#d6b572" stroke-width="1.51"/><path d="M-195,164L-238,228L-16,312Z" fill="#ccac6e" stroke="#ccac6e" stroke-width="1.51"/><path d="M-268,-14L-238,228L-195,164Z" fill="#d6b572" stroke="#d6b572" stroke-width="1.51"/><path d="M1071,-23L1051,-211L933,-67Z" fill="#95978f" stroke="#95978f" stroke-width="1.51"/><path d="M1166,303L1198,36L1002,160Z" fill="#868b86" stroke="#868b86" stroke-width="1.51"/><path d="M1261,73L1198,36L1166,303Z" fill="#888f88" stroke="#888f88" stroke-width="1.51"/><path d="M1069,765L1256,814L1143,647Z" fill="#0378a9" stroke="#0378a9" stroke-width="1.51"/><path d="M1424,519L1295,282L1189,497Z" fill="#638598" stroke="#638598" stroke-width="1.51"/><path d="M908,1128L1073,996L892,935Z" fill="#3785a9" stroke="#3785a9" stroke-width="1.51"/><path d="M1189,497L1295,282L1166,303Z" fill="#6e8591" stroke="#6e8591" stroke-width="1.51"/><path d="M1333,594L1189,497L1143,647Z" fill="#3f7da1" stroke="#3f7da1" stroke-width="1.51"/><path d="M766,1132L908,1128L892,935Z" fill="#4d8aa5" stroke="#4d8aa5" stroke-width="1.51"/><path d="M-139,999L-13,1041L91,931Z" fill="#95a297" stroke="#95a297" stroke-width="1.51"/><path d="M-139,999L91,931L-150,790Z" fill="#95a096" stroke="#95a096" stroke-width="1.51"/><path d="M-13,1041L117,1150L91,931Z" fill="#93a296" stroke="#93a296" stroke-width="1.51"/><path d="M292,1133L450,1258L373,1002Z" fill="#8b9b8d" stroke="#8b9b8d" stroke-width="1.51"/><path d="M117,1150L217,1202L292,1133Z" fill="#91a394" stroke="#91a394" stroke-width="1.51"/><path d="M766,1132L926,1283L908,1128Z" fill="#4c8ea8" stroke="#4c8ea8" stroke-width="1.51"/><path d="M1295,282L1261,73L1166,303Z" fill="#858c86" stroke="#858c86" stroke-width="1.51"/><path d="M1175,-190L1051,-211L1071,-23Z" fill="#939994" stroke="#939994" stroke-width="1.51"/><path d="M217,1202L450,1258L292,1133Z" fill="#8d9f90" stroke="#8d9f90" stroke-width="1.51"/><path d="M1229,945L1256,814L1069,765Z" fill="#067dac" stroke="#067dac" stroke-width="1.51"/><path d="M1256,814L1333,594L1143,647Z" fill="#0778a9" stroke="#0778a9" stroke-width="1.51"/><path d="M1175,-190L1071,-23L1278,-94Z" fill="#939a93" stroke="#939a93" stroke-width="1.51"/><path d="M450,1258L517,1274L551,1020Z" fill="#7e9995" stroke="#7e9995" stroke-width="1.51"/><path d="M517,1274L684,1257L551,1020Z" fill="#759699" stroke="#759699" stroke-width="1.51"/><path d="M14,-163L-127,-127L16,-38Z" fill="#dbba77" stroke="#dbba77" stroke-width="1.51"/><path d="M1061,1295L1070,1087L908,1128Z" fill="#288ab0" stroke="#288ab0" stroke-width="1.51"/><path d="M908,1128L1070,1087L1073,996Z" fill="#2585ad" stroke="#2585ad" stroke-width="1.51"/><path d="M1073,996L1229,945L1069,765Z" fill="#077eac" stroke="#077eac" stroke-width="1.51"/><path d="M450,1258L-5,1310L517,1274Z" fill="#8d9f90" stroke="#8d9f90" stroke-width="1.51"/><path d="M217,1202L-5,1310L450,1258Z" fill="#91a293" stroke="#91a293" stroke-width="1.51"/><path d="M117,1150L152,1213L217,1202Z" fill="#92a495" stroke="#92a495" stroke-width="1.51"/><path d="M-5,1310L152,1213L117,1150Z" fill="#95a797" stroke="#95a797" stroke-width="1.51"/><path d="M-13,1041L-5,1310L117,1150Z" fill="#96a999" stroke="#96a999" stroke-width="1.51"/><path d="M-255,925L-139,999L-150,790Z" fill="#99a49a" stroke="#99a49a" stroke-width="1.51"/><path d="M1220,1063L1229,945L1073,996Z" fill="#0a84b0" stroke="#0a84b0" stroke-width="1.51"/><path d="M1449,518L1424,519L1457,575Z" fill="#4d85a2" stroke="#4d85a2" stroke-width="1.51"/><path d="M-127,-127L-268,-14L-102,93Z" fill="#dbba77" stroke="#dbba77" stroke-width="1.51"/><path d="M-238,228L-255,925L-216,690Z" fill="#a19f91" stroke="#a19f91" stroke-width="1.51"/><path d="M1278,-94L1071,-23L1198,36Z" fill="#8f9690" stroke="#8f9690" stroke-width="1.51"/><path d="M-139,999L-208,1022L-13,1041Z" fill="#99a79b" stroke="#99a79b" stroke-width="1.51"/><path d="M-216,690L-255,925L-150,790Z" fill="#98a098" stroke="#98a098" stroke-width="1.51"/><path d="M-268,-14L-255,925L-238,228Z" fill="#bfa97e" stroke="#bfa97e" stroke-width="1.51"/><path d="M1333,594L1424,519L1189,497Z" fill="#4c819f" stroke="#4c819f" stroke-width="1.51"/><path d="M1295,282L1394,159L1261,73Z" fill="#889189" stroke="#889189" stroke-width="1.51"/><path d="M1261,73L1278,-94L1198,36Z" fill="#8f9690" stroke="#8f9690" stroke-width="1.51"/><path d="M1424,519L1333,594L1457,575Z" fill="#4683a3" stroke="#4683a3" stroke-width="1.51"/><path d="M1563,344L1394,159L1295,282Z" fill="#80908c" stroke="#80908c" stroke-width="1.51"/><path d="M1493,62L1278,-94L1261,73Z" fill="#8f9990" stroke="#8f9990" stroke-width="1.51"/><path d="M-255,925L-208,1022L-139,999Z" fill="#9ba89c" stroke="#9ba89c" stroke-width="1.51"/><path d="M1424,519L1563,344L1295,282Z" fill="#6d8b96" stroke="#6d8b96" stroke-width="1.51"/><path d="M1457,575L1333,594L1418,824Z" fill="#1e7eaa" stroke="#1e7eaa" stroke-width="1.51"/><path d="M684,1257L926,1283L766,1132Z" fill="#5990a4" stroke="#5990a4" stroke-width="1.51"/><path d="M1070,1087L1220,1063L1073,996Z" fill="#0a85b0" stroke="#0a85b0" stroke-width="1.51"/><path d="M517,1274L926,1283L684,1257Z" fill="#6593a0" stroke="#6593a0" stroke-width="1.51"/><path d="M1418,824L1333,594L1256,814Z" fill="#077eac" stroke="#077eac" stroke-width="1.51"/><path d="M1261,1261L1220,1063L1070,1087Z" fill="#0d8bb4" stroke="#0d8bb4" stroke-width="1.51"/><path d="M1418,824L1256,814L1329,992Z" fill="#0a84b0" stroke="#0a84b0" stroke-width="1.51"/><path d="M353,-209L-244,-197L14,-163Z" fill="#dcbb78" stroke="#dcbb78" stroke-width="1.51"/><path d="M14,-163L-244,-197L-127,-127Z" fill="#e1bf7c" stroke="#e1bf7c" stroke-width="1.51"/><path d="M-127,-127L-244,-197L-268,-14Z" fill="#e1c07d" stroke="#e1c07d" stroke-width="1.51"/><path d="M1329,992L1256,814L1229,945Z" fill="#0983b0" stroke="#0983b0" stroke-width="1.51"/><path d="M1220,1063L1329,992L1229,945Z" fill="#0b87b1" stroke="#0b87b1" stroke-width="1.51"/><path d="M1380,1046L1329,992L1220,1063Z" fill="#0c8ab3" stroke="#0c8ab3" stroke-width="1.51"/><path d="M-208,1022L-5,1310L-13,1041Z" fill="#99aa9c" stroke="#99aa9c" stroke-width="1.51"/><path d="M152,1213L-5,1310L217,1202Z" fill="#94a696" stroke="#94a696" stroke-width="1.51"/><path d="M517,1274L1061,1295L926,1283Z" fill="#528fa7" stroke="#528fa7" stroke-width="1.51"/><path d="M-5,1310L1061,1295L517,1274Z" fill="#7c9896" stroke="#7c9896" stroke-width="1.51"/><path d="M926,1283L1061,1295L908,1128Z" fill="#378bad" stroke="#378bad" stroke-width="1.51"/><path d="M1394,159L1493,62L1261,73Z" fill="#8d978d" stroke="#8d978d" stroke-width="1.51"/><path d="M1278,-94L1410,-247L1175,-190Z" fill="#98a199" stroke="#98a199" stroke-width="1.51"/><path d="M1623,91L1493,62L1394,159Z" fill="#8e9a8f" stroke="#8e9a8f" stroke-width="1.51"/><path d="M1563,344L1424,519L1449,518Z" fill="#5f899c" stroke="#5f899c" stroke-width="1.51"/><path d="M1660,318L1563,344L1723,522Z" fill="#6d929a" stroke="#6d929a" stroke-width="1.51"/><path d="M1675,571L1563,344L1449,518Z" fill="#5c8b9f" stroke="#5c8b9f" stroke-width="1.51"/><path d="M1418,824L1545,735L1457,575Z" fill="#0880ae" stroke="#0880ae" stroke-width="1.51"/><path d="M1329,992L1457,901L1418,824Z" fill="#0b87b2" stroke="#0b87b2" stroke-width="1.51"/><path d="M1380,1046L1457,901L1329,992Z" fill="#0d8ab4" stroke="#0d8ab4" stroke-width="1.51"/><path d="M1261,1261L1380,1046L1220,1063Z" fill="#0d8db5" stroke="#0d8db5" stroke-width="1.51"/><path d="M1457,901L1545,735L1418,824Z" fill="#0a85b1" stroke="#0a85b1" stroke-width="1.51"/><path d="M1623,91L1500,-53L1493,62Z" fill="#919f93" stroke="#919f93" stroke-width="1.51"/><path d="M1493,62L1500,-53L1278,-94Z" fill="#939e94" stroke="#939e94" stroke-width="1.51"/><path d="M1061,1295L1261,1261L1070,1087Z" fill="#0d8ab3" stroke="#0d8ab3" stroke-width="1.51"/><path d="M1500,-53L1410,-247L1278,-94Z" fill="#97a298" stroke="#97a298" stroke-width="1.51"/><path d="M1175,-190L1410,-247L1051,-211Z" fill="#98a099" stroke="#98a099" stroke-width="1.51"/><path d="M1051,-211L1410,-247L905,-212Z" fill="#989e98" stroke="#989e98" stroke-width="1.51"/><path d="M905,-212L1410,-247L353,-209Z" fill="#a7a18d" stroke="#a7a18d" stroke-width="1.51"/><path d="M353,-209L1410,-247L-244,-197Z" fill="#c8ad77" stroke="#c8ad77" stroke-width="1.51"/><path d="M1675,571L1449,518L1457,575Z" fill="#4a87a4" stroke="#4a87a4" stroke-width="1.51"/><path d="M1563,344L1623,91L1394,159Z" fill="#89968b" stroke="#89968b" stroke-width="1.51"/><path d="M1660,318L1623,91L1563,344Z" fill="#85978f" stroke="#85978f" stroke-width="1.51"/><path d="M1500,-53L1528,-143L1410,-247Z" fill="#99a69a" stroke="#99a69a" stroke-width="1.51"/><path d="M1717,22L1528,-143L1500,-53Z" fill="#96a598" stroke="#96a598" stroke-width="1.51"/><path d="M-268,-14L-292,1278L-255,925Z" fill="#989f99" stroke="#989f99" stroke-width="1.51"/><path d="M-255,925L-292,1278L-208,1022Z" fill="#9eafa0" stroke="#9eafa0" stroke-width="1.51"/><path d="M-208,1022L-292,1278L-5,1310Z" fill="#9db0a0" stroke="#9db0a0" stroke-width="1.51"/><path d="M1545,735L1675,571L1457,575Z" fill="#3285aa" stroke="#3285aa" stroke-width="1.51"/><path d="M1680,786L1675,571L1545,735Z" fill="#0a85b1" stroke="#0a85b1" stroke-width="1.51"/><path d="M1680,786L1545,735L1657,859Z" fill="#0c89b3" stroke="#0c89b3" stroke-width="1.51"/><path d="M1485,1133L1457,901L1380,1046Z" fill="#0e8db6" stroke="#0e8db6" stroke-width="1.51"/><path d="M1409,1282L1485,1133L1380,1046Z" fill="#0f93b9" stroke="#0f93b9" stroke-width="1.51"/><path d="M1675,571L1723,522L1563,344Z" fill="#5d8ea1" stroke="#5d8ea1" stroke-width="1.51"/><path d="M1660,318L1717,22L1623,91Z" fill="#8e9e90" stroke="#8e9e90" stroke-width="1.51"/><path d="M1680,786L1723,522L1675,571Z" fill="#3389ad" stroke="#3389ad" stroke-width="1.51"/><path d="M1657,859L1545,735L1457,901Z" fill="#0c88b3" stroke="#0c88b3" stroke-width="1.51"/><path d="M1647,1130L1657,859L1457,901Z" fill="#0f90b6" stroke="#0f90b6" stroke-width="1.51"/><path d="M1485,1133L1647,1130L1457,901Z" fill="#1092b8" stroke="#1092b8" stroke-width="1.51"/><path d="M1261,1261L1409,1282L1380,1046Z" fill="#0f91b7" stroke="#0f91b7" stroke-width="1.51"/><path d="M1061,1295L1409,1282L1261,1261Z" fill="#0e8eb6" stroke="#0e8eb6" stroke-width="1.51"/><path d="M1623,91L1717,22L1500,-53Z" fill="#93a295" stroke="#93a295" stroke-width="1.51"/><path d="M1528,-143L1738,-166L1410,-247Z" fill="#9cab9e" stroke="#9cab9e" stroke-width="1.51"/><path d="M1723,522L1717,22L1660,318Z" fill="#809893" stroke="#809893" stroke-width="1.51"/><path d="M1555,1261L1647,1130L1485,1133Z" fill="#1198bb" stroke="#1198bb" stroke-width="1.51"/><path d="M1657,859L1671,1174L1680,786Z" fill="#0f91b7" stroke="#0f91b7" stroke-width="1.51"/><path d="M1680,786L1671,1174L1723,522Z" fill="#0d8cb5" stroke="#0d8cb5" stroke-width="1.51"/><path d="M1409,1282L1555,1261L1485,1133Z" fill="#1095ba" stroke="#1095ba" stroke-width="1.51"/><path d="M1717,22L1738,-166L1528,-143Z" fill="#99a99b" stroke="#99a99b" stroke-width="1.51"/><path d="M1723,522L1738,-166L1717,22Z" fill="#8fa092" stroke="#8fa092" stroke-width="1.51"/><path d="M1555,1261L1671,1174L1647,1130Z" fill="#119abc" stroke="#119abc" stroke-width="1.51"/><path d="M1647,1130L1671,1174L1657,859Z" fill="#1196ba" stroke="#1196ba" stroke-width="1.51"/></svg>